PathFileType	4	(X/Y/Z)	OpenSim_Sub07_EMGBaseline_Accel.trc
DataRate	CameraRate	NumFrames	NumMarkers	Units	OrigDataRate	OrigDataStartFrame	OrigNumFrames
100	100	30	8	m	100	2561	6828
Frame#	Time	torso_imu_offset_imu	pelvis_imu_offset_imu	tibia_r_imu_offset_imu	femur_r_imu_offset_imu	tibia_l_imu_offset_imu	femur_l_imu_offset_imu	toes_r_imu_offset_imu	toes_l_imu_offset_imu
				X1	Y1	Z1	X2	Y2	Z2	X3	Y3	Z3	X4	Y4	Z4	X5	Y5	Z5	X6	Y6	Z6	X7	Y7	Z7	X8		Y8	Z8	

2561	25.60000000	-8.00815100	0.46927700	6.35354400	8.70761300	-0.66151100	2.67117900	5.66030100	5.14441800	-0.68924100	7.65473100	-1.03878000	1.81417400	9.70172900	-0.45589200	-0.57382500	8.96519200	0.84131200	-1.95601300	5.70091500	3.59978200	6.55374500	5.35067600	1.66169800	10.76003100
2562	25.61000000	-8.11846300	0.41454800	6.29139800	8.71883300	-0.74664700	2.51958600	6.03683400	5.79331100	0.37800500	7.38182900	-1.18501300	1.68928500	9.68407100	-0.38728300	-0.81407900	8.88832700	1.17446100	-2.11889800	7.42562100	2.37530900	6.78192100	5.04085500	1.60992700	10.96064500
2563	25.62000000	-8.13134400	0.42153400	6.31301000	8.72486200	-0.50979500	2.25080000	6.06717600	7.15125600	0.05239400	7.14269600	-1.07254200	1.34916400	9.78645500	-0.16579700	-0.63519500	9.06895000	1.77688100	-2.22474900	8.34630500	1.85911100	7.99490700	5.34100700	1.80818700	10.80341800
2564	25.63000000	-8.13526000	0.37299800	6.27911000	8.61675900	-0.61348100	2.10786600	6.27451400	8.97428000	-1.35694300	7.04232100	-0.86160300	0.89173900	9.74836800	-0.02623500	-0.62633900	9.14963000	2.05323100	-2.27156500	8.06470300	2.23227900	9.45134000	5.26527500	1.55461300	10.69596700
2565	25.64000000	-8.12666800	0.35425100	6.24910300	8.61175200	-0.63557800	1.92727000	7.20484700	9.70952400	-2.74351600	7.10951700	-0.58698600	0.75689500	9.81467800	-0.23715300	-0.40016200	8.98620600	2.04058000	-2.16011100	10.50451500	3.25474800	11.74113000	5.61266900	1.61761100	10.68416600
2566	25.65000000	-8.15398700	0.38145300	6.25426100	8.69119700	-0.67519400	1.71877300	8.66826000	8.06257100	-3.22005900	7.28945000	-0.17147200	0.83908200	9.83208300	-0.37796700	-0.50552000	8.92359900	1.70733300	-1.97888400	16.46234600	4.20580100	13.76906100	4.70931000	1.56478100	11.12363200
2567	25.66000000	-8.27349100	0.36995100	6.24719900	8.73236000	-0.66066800	1.75909300	10.69914000	6.79612000	-3.10465500	7.50571600	0.17357100	0.80970600	9.78155900	-0.23456300	-0.35102200	9.08585100	1.85458800	-2.02716600	18.09389000	3.42792900	13.02808100	5.41450400	1.64730700	10.73707600
2568	25.67000000	-8.45756700	0.33788300	6.30191800	8.80677800	-0.50742600	1.77503200	12.23399100	6.28646000	-3.55661600	8.01826600	0.56488700	0.60600900	9.73912000	-0.41797300	-0.56513700	9.15574300	1.99845900	-2.13694400	16.14677800	2.93867500	10.50193700	5.46561900	1.48044700	10.80134900
2569	25.68000000	-8.67178700	0.29599600	6.37064600	8.90961100	-0.20540800	1.63514400	11.89251700	4.25137700	-3.10641600	8.71788500	0.36255100	0.38152200	10.07414800	-0.69452000	-0.57312800	9.20078200	2.19915500	-2.07461000	15.64963800	2.42688000	9.01541500	5.64061100	1.49208500	10.75515400
2570	25.69000000	-8.76055000	0.21515200	6.34708600	9.12040800	0.08494600	1.52308100	11.00281100	2.67002800	-1.70127800	9.20956500	-1.13589500	0.24113800	10.03862200	-0.89295400	-0.44518500	9.11716000	2.03512900	-2.13285300	17.22213600	2.08463300	8.67531000	4.97981400	1.72300400	11.08226900
2571	25.70000000	-8.83118800	0.19140000	6.40092100	9.32135400	0.24586700	1.37659600	9.95903800	2.52582300	-0.75621400	9.25754000	-3.77394000	0.60051100	9.59952200	-0.84943200	-0.30189700	8.97715400	1.84526100	-2.08497800	18.24054900	1.20558700	8.18181500	4.87144100	1.85575300	11.01291700
2572	25.71000000	-8.87399600	0.17135400	6.47713200	9.44562600	0.33554900	1.42796700	9.65956500	2.54504400	0.52305300	9.49409700	-5.86415700	1.29518000	9.66440700	-0.79150300	-0.18793000	8.96239500	1.73802000	-2.05153200	18.19614200	-0.34521000	7.08787800	5.42331900	1.48994800	10.87464300
2573	25.72000000	-9.00126500	0.21249400	6.61997500	9.43773700	0.36033000	1.52466800	10.17174300	2.42852800	1.34803300	9.94044500	-7.26664700	1.82646100	10.09560500	-1.46857800	-0.19538100	9.21409200	1.66884400	-2.09065700	17.67081800	-1.78047200	5.73057900	5.43676900	1.32171400	10.79872700
2574	25.73000000	-8.97181800	0.21126000	6.60523000	9.35957700	0.20277000	1.59885000	10.91066500	2.70162500	0.63896900	10.25871200	-8.30219100	1.87687900	10.19237100	-1.82891700	-0.08833400	9.43291900	1.23996500	-2.06904100	17.06443000	-1.73605700	4.44223300	5.30375900	1.32587300	10.96489400
2575	25.74000000	-8.94938000	0.19187400	6.60724800	9.33702800	-0.05238400	1.61456100	10.96479200	2.77608800	0.01989500	9.97074300	-8.72712400	1.23747700	10.37513400	-1.96958500	0.05028700	9.68085700	1.02593000	-1.96969400	17.00654000	-0.94194400	3.13011400	4.88439700	1.42528500	11.25938100
2576	25.75000000	-9.05365000	0.11358000	6.59079900	9.38912900	-0.29678700	1.70224900	10.29366300	2.16047000	0.57383400	9.20521500	-8.65048600	0.22808700	10.27390400	-1.78376700	-0.30815600	9.84360400	1.21586500	-2.00219800	17.39791100	-0.34176400	1.80077700	5.39782200	1.31251600	11.02748400
2577	25.76000000	-9.18504400	0.10083900	6.59559000	9.50740100	-0.43057000	1.71952500	9.30536900	0.75030700	1.43389600	8.50629700	-8.37733600	-0.66107500	10.52142300	-1.43155900	-0.46948700	9.89614600	1.22300100	-2.13456900	17.65101400	0.13861200	0.21762200	5.27042400	1.22163200	10.98610200
2578	25.77000000	-9.16361200	0.05818000	6.52974800	9.64204600	-0.61804300	1.73391900	8.35815300	-0.80717800	1.72424600	8.15774700	-8.23892000	-1.30090400	10.44158300	-1.27463200	-0.43498700	9.70071700	1.35541100	-2.31803300	17.59617100	0.77639300	-1.46111300	5.55252600	1.30820000	10.87763500
2579	25.78000000	-9.11781100	0.03005600	6.57400400	9.69550400	-0.87806400	1.72737300	7.92681400	-1.92043900	1.57021700	7.74953700	-7.81013700	-1.74503100	10.17598100	-1.22275900	-0.52884700	9.38296600	1.41259200	-2.58324800	17.36876100	1.43487600	-3.03436900	4.61297000	1.64680100	11.39607000
2580	25.79000000	-9.11214700	0.11642000	6.73049400	9.75652600	-1.08054700	1.77556000	7.99330700	-2.69199600	1.47494900	7.53967000	-7.08920600	-1.97154900	10.15840700	-0.92736300	-0.51584600	9.34962600	1.90107200	-2.72376900	16.17782300	1.75081800	-4.59250000	4.67704700	1.76302100	11.40970400
2581	25.80000000	-9.21347500	0.13264100	6.90576600	9.90077800	-1.32652500	1.62633100	8.23483600	-3.05854900	1.11368800	7.87571600	-6.47116900	-2.32871700	10.84569700	-0.75674800	-0.67186300	9.79324800	1.83765000	-2.89377700	14.17247700	1.44828400	-5.53352800	5.34174300	1.44697100	11.00586100
2582	25.81000000	-9.32269300	0.12596300	6.73081500	10.01334300	-1.38791700	1.48846900	8.29700400	-2.45547000	0.67779600	8.45568800	-5.51701500	-2.24598700	11.00504200	-0.69870000	-0.51503200	9.74228500	1.67817100	-3.03443300	12.24962700	1.03633500	-5.38614200	5.32258400	1.44048000	11.11178400
2583	25.82000000	-9.22402400	0.06273800	6.64392200	9.96268900	-1.42805800	1.22388600	8.03341300	-1.28111800	0.04125100	8.51038200	-4.19122500	-1.59693500	10.76984300	-0.65536500	-0.20446900	9.50474500	1.76473200	-2.92679100	9.15104300	-2.55456200	-5.24536100	4.81020400	1.51887400	11.42415600
2584	25.83000000	-8.96371800	0.01957700	6.62919000	9.95087900	-1.47785300	1.27534500	7.96384900	0.03521600	-0.84316300	8.65309400	-3.09979900	-0.51426100	10.49585600	-0.24185100	0.17776100	9.35811100	1.75751300	-2.57746200	5.83889400	-7.10515000	-10.23472000	5.02105100	1.54364000	11.31026100
2585	25.84000000	-9.13001700	0.09300100	6.99902100	10.07696200	-1.45053600	1.52982800	8.82784300	-0.27912900	-1.56657900	8.31930500	-3.03634200	0.31517900	10.68256800	-0.05447500	-0.09232100	9.66426100	1.61698600	-2.33389400	-3.80198200	7.67270200	6.82034200	5.34905600	1.77300700	11.17629100
2586	25.85000000	-9.57803800	0.15034600	7.20074000	10.28420500	-1.27245500	1.70226800	9.95722000	-1.17493800	-0.15242600	8.59109000	-3.08378600	0.83391300	11.42746400	0.00678200	-0.48935700	10.12711700	1.42543600	-2.26728900	6.07447500	6.62629100	13.94123700	5.05108000	1.96865000	11.58429500
2587	25.86000000	-9.99234400	0.27524600	7.34565700	10.39950500	-0.93966200	1.96022400	11.58970100	-0.72721000	4.47574500	9.55368800	-2.72924600	1.55067200	11.83586700	0.30887200	-0.37745000	10.36320700	1.38568400	-2.23063800	5.70421500	9.11853400	13.88086500	4.78338200	2.01753500	11.71525100
2588	25.87000000	-10.33841800	0.41046800	7.34468700	10.41351300	-0.53593400	2.07518900	12.76395400	-0.53309600	8.02393100	9.66927100	-2.78025500	1.52936900	11.82516600	0.44187400	0.09692500	10.50039200	1.49808200	-1.88292900	1.53718300	7.94697100	7.22637700	4.64746600	2.09401100	11.83420200
2589	25.88000000	-10.21872200	0.49572500	7.17899400	10.49489400	-0.35289400	2.21027600	11.31667700	1.16734600	6.35632000	9.95497100	-2.81953000	1.04633000	11.73750700	0.85989800	0.73140100	10.59002900	1.93061000	-1.53450400	4.68735100	9.52219400	7.58421300	5.42076800	2.30786100	11.53096600
2590	25.89000000	-9.95335500	0.63378700	7.15584400	10.56320000	-0.25155200	2.60965100	10.37580400	3.31796100	5.54645000	10.97258000	-2.37138300	1.19056000	12.03536400	0.77717800	1.12935400	10.54815300	2.72144100	-1.24834200	9.21478000	8.91809900	10.92844100	5.36209300	2.06268700	11.54543600
